<svg xmlns="http://www.w3.org/2000/svg" xmlns:xlink="http://www.w3.org/1999/xlink" width="840" height="756.4300000000001"><rect width="840" height="756.4300000000001" rx="0" ry="0" class="a"></rect><svg height="716.4300000000001" viewBox="0 0 80 71.643" width="800" x="20" xmlns="http://www.w3.org/2000/svg" xmlns:xlink="http://www.w3.org/1999/xlink" y="20"><style>.a{fill:rgb(22,27,34)}.b{font-family:'Fira Code',Monaco,Consolas,Menlo,'Bitstream Vera Sans Mono','Powerline Symbols',monospace}.c{fill:transparent}.d{fill:rgb(148,148,148);white-space:pre}.e{fill:rgb(42,161,152);white-space:pre}.f{fill:rgb(201,209,217);font-weight:bold;white-space:pre}.g{fill:rgb(201,209,217);white-space:pre}</style><g font-family="&#x27;Fira Code&#x27;,Monaco,Consolas,Menlo,&#x27;Bitstream Vera Sans Mono&#x27;,&#x27;Powerline Symbols&#x27;,monospace" font-size="1.67" class="b"><defs><symbol id="a"><rect height="33" width="80" x="0" y="0" class="c"></rect></symbol></defs><rect height="71.643" width="80" class="a"></rect><svg x="0" y="0" width="80"><svg x="0"><use xlink:href="#a"></use><text font-size="1.67" x="0" y="1.67" class="d">#</text><text font-size="1.67" x="2.004" y="1.67" class="d">10</text><text font-size="1.67" x="5.01" y="1.67" class="d">Dr</text><text font-size="1.67" x="8.016" y="1.67" class="d">Frost</text><text font-size="1.67" x="14.027999999999999" y="1.67" class="d">tasks</text><text font-size="1.67" x="0" y="6.012" class="e">──</text><text font-size="1.67" x="3.006" y="6.012" class="f">KS2</text><text font-size="1.67" x="7.013999999999999" y="6.012" class="f">Number</text><text font-size="1.67" x="14.027999999999999" y="6.012" class="e">──────────────────────────────────────────────────────────────────</text><text font-size="1.67" x="0" y="10.354" class="g">──</text><text font-size="1.67" x="3.006" y="10.354" class="f">Arithmetic</text><text font-size="1.67" x="14.027999999999999" y="10.354" class="f">Operations</text><text font-size="1.67" x="25.05" y="10.354" class="g">──</text><text font-size="1.67" x="0" y="12.525" class="e">•</text><text font-size="1.67" x="2.004" y="12.525" class="g">addition_subtraction</text><text font-size="1.67" x="2.004" y="14.696" class="g">Add</text><text font-size="1.67" x="6.012" y="14.696" class="g">and</text><text font-size="1.67" x="10.02" y="14.696" class="g">subtract</text><text font-size="1.67" x="19.037999999999997" y="14.696" class="g">whole</text><text font-size="1.67" x="25.05" y="14.696" class="g">numbers.</text><text font-size="1.67" x="0" y="16.866999999999997" class="e">•</text><text font-size="1.67" x="2.004" y="16.866999999999997" class="g">multiplication</text><text font-size="1.67" x="2.004" y="19.037999999999997" class="g">Multiply</text><text font-size="1.67" x="11.021999999999998" y="19.037999999999997" class="g">numbers</text><text font-size="1.67" x="19.037999999999997" y="19.037999999999997" class="g">up</text><text font-size="1.67" x="22.043999999999997" y="19.037999999999997" class="g">to</text><text font-size="1.67" x="25.05" y="19.037999999999997" class="g">3</text><text font-size="1.67" x="27.054" y="19.037999999999997" class="g">digit</text><text font-size="1.67" x="33.065999999999995" y="19.037999999999997" class="g">by</text><text font-size="1.67" x="36.071999999999996" y="19.037999999999997" class="g">3</text><text font-size="1.67" x="38.07599999999999" y="19.037999999999997" class="g">digit.</text><text font-size="1.67" x="0" y="21.209000000000003" class="e">•</text><text font-size="1.67" x="2.004" y="21.209000000000003" class="g">pictoral_division</text><text font-size="1.67" x="2.004" y="23.380000000000003" class="g">Solve</text><text font-size="1.67" x="8.016" y="23.380000000000003" class="g">one</text><text font-size="1.67" x="12.024" y="23.380000000000003" class="g">step</text><text font-size="1.67" x="17.034" y="23.380000000000003" class="g">multiplication</text><text font-size="1.67" x="32.064" y="23.380000000000003" class="g">and</text><text font-size="1.67" x="36.071999999999996" y="23.380000000000003" class="g">division</text><text font-size="1.67" x="45.089999999999996" y="23.380000000000003" class="g">problems</text><text font-size="1.67" x="54.108" y="23.380000000000003" class="g">by</text><text font-size="1.67" x="57.114" y="23.380000000000003" class="g">using</text><text font-size="1.67" x="63.12599999999999" y="23.380000000000003" class="g">pictorial</text><text font-size="1.67" x="2.004" y="25.550999999999995" class="g">representations</text><text font-size="1.67" x="18.035999999999998" y="25.550999999999995" class="g">and</text><text font-size="1.67" x="22.043999999999997" y="25.550999999999995" class="g">arrays.</text><text font-size="1.67" x="0" y="27.722" class="e">•</text><text font-size="1.67" x="2.004" y="27.722" class="g">division</text><text font-size="1.67" x="2.004" y="29.893" class="g">Divide</text><text font-size="1.67" x="9.017999999999999" y="29.893" class="g">numbers.</text><text font-size="1.67" x="0" y="32.064" class="e">•</text><text font-size="1.67" x="2.004" y="32.064" class="g">number_facts</text><text font-size="1.67" x="2.004" y="34.235" class="g">Using</text><text font-size="1.67" x="8.016" y="34.235" class="g">number</text><text font-size="1.67" x="15.029999999999998" y="34.235" class="g">facts</text><text font-size="1.67" x="21.041999999999998" y="34.235" class="g">to</text><text font-size="1.67" x="24.048" y="34.235" class="g">solve</text><text font-size="1.67" x="30.059999999999995" y="34.235" class="g">connected</text><text font-size="1.67" x="40.08" y="34.235" class="g">calculations.</text><text font-size="1.67" x="0" y="36.406" class="e">•</text><text font-size="1.67" x="2.004" y="36.406" class="g">missing_digits</text><text font-size="1.67" x="2.004" y="38.577000000000005" class="g">Solve</text><text font-size="1.67" x="8.016" y="38.577000000000005" class="g">multiplication,</text><text font-size="1.67" x="24.048" y="38.577000000000005" class="g">addition</text><text font-size="1.67" x="33.065999999999995" y="38.577000000000005" class="g">and</text><text font-size="1.67" x="37.074" y="38.577000000000005" class="g">subtraction</text><text font-size="1.67" x="49.098" y="38.577000000000005" class="g">problems</text><text font-size="1.67" x="58.116" y="38.577000000000005" class="g">involving</text><text font-size="1.67" x="68.136" y="38.577000000000005" class="g">missing</text><text font-size="1.67" x="2.004" y="40.748000000000005" class="g">digits.</text><text font-size="1.67" x="0" y="42.919" class="e">•</text><text font-size="1.67" x="2.004" y="42.919" class="g">bidmas</text><text font-size="1.67" x="2.004" y="45.09" class="g">Understand</text><text font-size="1.67" x="13.026" y="45.09" class="g">the</text><text font-size="1.67" x="17.034" y="45.09" class="g">order</text><text font-size="1.67" x="23.045999999999996" y="45.09" class="g">in</text><text font-size="1.67" x="26.052" y="45.09" class="g">which</text><text font-size="1.67" x="32.064" y="45.09" class="g">operators</text><text font-size="1.67" x="42.083999999999996" y="45.09" class="g">in</text><text font-size="1.67" x="45.089999999999996" y="45.09" class="g">an</text><text font-size="1.67" x="48.096" y="45.09" class="g">expression</text><text font-size="1.67" x="59.117999999999995" y="45.09" class="g">are</text><text font-size="1.67" x="63.12599999999999" y="45.09" class="g">evaluated</text><text font-size="1.67" x="2.004" y="47.261" class="g">according</text><text font-size="1.67" x="12.024" y="47.261" class="g">to</text><text font-size="1.67" x="15.029999999999998" y="47.261" class="g">BIDMAS.</text><text font-size="1.67" x="0" y="49.431999999999995" class="e">•</text><text font-size="1.67" x="2.004" y="49.431999999999995" class="g">estimate_calculations</text><text font-size="1.67" x="2.004" y="51.603" class="g">Estimate</text><text font-size="1.67" x="11.021999999999998" y="51.603" class="g">the</text><text font-size="1.67" x="15.029999999999998" y="51.603" class="g">result</text><text font-size="1.67" x="22.043999999999997" y="51.603" class="g">of</text><text font-size="1.67" x="25.05" y="51.603" class="g">a</text><text font-size="1.67" x="27.054" y="51.603" class="g">calculation</text><text font-size="1.67" x="39.077999999999996" y="51.603" class="g">by</text><text font-size="1.67" x="42.083999999999996" y="51.603" class="g">first</text><text font-size="1.67" x="48.096" y="51.603" class="g">rounding</text><text font-size="1.67" x="57.114" y="51.603" class="g">each</text><text font-size="1.67" x="62.123999999999995" y="51.603" class="g">number.</text><text font-size="1.67" x="0" y="55.945" class="e">──</text><text font-size="1.67" x="3.006" y="55.945" class="f">Times</text><text font-size="1.67" x="9.017999999999999" y="55.945" class="f">tables</text><text font-size="1.67" x="16.032" y="55.945" class="e">────────────────────────────────────────────────────────────────</text><text font-size="1.67" x="0" y="60.287" class="e">•</text><text font-size="1.67" x="2.004" y="60.287" class="g">fixed_time</text><text font-size="1.67" x="2.004" y="62.458" class="g">You</text><text font-size="1.67" x="6.012" y="62.458" class="g">have</text><text font-size="1.67" x="11.021999999999998" y="62.458" class="g">30</text><text font-size="1.67" x="14.027999999999999" y="62.458" class="g">seconds</text><text font-size="1.67" x="22.043999999999997" y="62.458" class="g">to</text><text font-size="1.67" x="25.05" y="62.458" class="g">answer</text><text font-size="1.67" x="32.064" y="62.458" class="g">as</text><text font-size="1.67" x="35.06999999999999" y="62.458" class="g">many</text><text font-size="1.67" x="40.08" y="62.458" class="g">questions</text><text font-size="1.67" x="50.1" y="62.458" class="g">as</text><text font-size="1.67" x="53.105999999999995" y="62.458" class="g">you</text><text font-size="1.67" x="57.114" y="62.458" class="g">can</text><text font-size="1.67" x="61.12199999999999" y="62.458" class="g">on</text><text font-size="1.67" x="64.128" y="62.458" class="g">all</text><text font-size="1.67" x="2.004" y="64.629" class="g">times/divide</text><text font-size="1.67" x="15.029999999999998" y="64.629" class="g">tables.</text><text font-size="1.67" x="23.045999999999996" y="64.629" class="g">Can</text><text font-size="1.67" x="27.054" y="64.629" class="g">you</text><text font-size="1.67" x="31.061999999999998" y="64.629" class="g">get</text><text font-size="1.67" x="35.06999999999999" y="64.629" class="g">on</text><text font-size="1.67" x="38.07599999999999" y="64.629" class="g">the</text><text font-size="1.67" x="42.083999999999996" y="64.629" class="g">leaderboard?</text><text font-size="1.67" x="0" y="66.8" class="e">•</text><text font-size="1.67" x="2.004" y="66.8" class="g">individual_practice</text><text font-size="1.67" x="2.004" y="68.971" class="g">Practise</text><text font-size="1.67" x="11.021999999999998" y="68.971" class="g">each</text><text font-size="1.67" x="16.032" y="68.971" class="g">times</text><text font-size="1.67" x="22.043999999999997" y="68.971" class="g">table/divide</text><text font-size="1.67" x="35.06999999999999" y="68.971" class="g">table</text><text font-size="1.67" x="41.082" y="68.971" class="g">separately,</text><text font-size="1.67" x="53.105999999999995" y="68.971" class="g">with</text><text font-size="1.67" x="58.116" y="68.971" class="g">points</text><text font-size="1.67" x="65.13" y="68.971" class="g">for</text><text font-size="1.67" x="69.13799999999999" y="68.971" class="g">accuracy</text><text font-size="1.67" x="2.004" y="71.142" class="g">and</text><text font-size="1.67" x="6.012" y="71.142" class="g">speed.</text></svg></svg></g></svg></svg>