<svg xmlns="http://www.w3.org/2000/svg" xmlns:xlink="http://www.w3.org/1999/xlink" width="840" height="1885.35"><rect width="840" height="1885.35" rx="0" ry="0" class="a"></rect><svg height="1845.35" viewBox="0 0 80 184.535" width="800" x="20" xmlns="http://www.w3.org/2000/svg" xmlns:xlink="http://www.w3.org/1999/xlink" y="20"><style>.a{fill:rgb(247,247,247)}.b{font-family:'Fira Code',Monaco,Consolas,Menlo,'Bitstream Vera Sans Mono','Powerline Symbols',monospace}.c{fill:transparent}.d{fill:rgb(148,148,148);white-space:pre}.e{fill:rgb(42,161,152);white-space:pre}.f{fill:rgb(101,123,131);font-weight:bold;white-space:pre}.g{fill:rgb(101,123,131);white-space:pre}</style><g font-family="&#x27;Fira Code&#x27;,Monaco,Consolas,Menlo,&#x27;Bitstream Vera Sans Mono&#x27;,&#x27;Powerline Symbols&#x27;,monospace" font-size="1.67" class="b"><defs><symbol id="a"><rect height="85" width="80" x="0" y="0" class="c"></rect></symbol></defs><rect height="184.535" width="80" class="a"></rect><svg x="0" y="0" width="80"><svg x="0"><use xlink:href="#a"></use><text font-size="1.67" x="0" y="1.67" class="d">#</text><text font-size="1.67" x="2.004" y="1.67" class="d">26</text><text font-size="1.67" x="5.01" y="1.67" class="d">Dr</text><text font-size="1.67" x="8.016" y="1.67" class="d">Frost</text><text font-size="1.67" x="14.027999999999999" y="1.67" class="d">tasks</text><text font-size="1.67" x="0" y="6.012" class="e">──</text><text font-size="1.67" x="3.006" y="6.012" class="f">Algebra</text><text font-size="1.67" x="11.021999999999998" y="6.012" class="e">─────────────────────────────────────────────────────────────────────</text><text font-size="1.67" x="0" y="10.354" class="g">──</text><text font-size="1.67" x="3.006" y="10.354" class="f">Sequences</text><text font-size="1.67" x="13.026" y="10.354" class="g">──</text><text font-size="1.67" x="0" y="12.525" class="e">•</text><text font-size="1.67" x="2.004" y="12.525" class="g">continue_sequence</text><text font-size="1.67" x="2.004" y="14.696" class="g">Continue</text><text font-size="1.67" x="11.021999999999998" y="14.696" class="g">a</text><text font-size="1.67" x="13.026" y="14.696" class="g">sequence.</text><text font-size="1.67" x="0" y="16.866999999999997" class="e">•</text><text font-size="1.67" x="2.004" y="16.866999999999997" class="g">later_terms</text><text font-size="1.67" x="2.004" y="19.037999999999997" class="g">Find</text><text font-size="1.67" x="7.013999999999999" y="19.037999999999997" class="g">terms</text><text font-size="1.67" x="13.026" y="19.037999999999997" class="g">of</text><text font-size="1.67" x="16.032" y="19.037999999999997" class="g">a</text><text font-size="1.67" x="18.035999999999998" y="19.037999999999997" class="g">sequence</text><text font-size="1.67" x="27.054" y="19.037999999999997" class="g">given</text><text font-size="1.67" x="33.065999999999995" y="19.037999999999997" class="g">a</text><text font-size="1.67" x="35.06999999999999" y="19.037999999999997" class="g">term-to-term</text><text font-size="1.67" x="48.096" y="19.037999999999997" class="g">rule.</text><text font-size="1.67" x="0" y="23.380000000000003" class="g">──</text><text font-size="1.67" x="3.006" y="23.380000000000003" class="f">Solving</text><text font-size="1.67" x="11.021999999999998" y="23.380000000000003" class="f">Equations</text><text font-size="1.67" x="21.041999999999998" y="23.380000000000003" class="g">──</text><text font-size="1.67" x="0" y="25.550999999999995" class="e">•</text><text font-size="1.67" x="2.004" y="25.550999999999995" class="g">simple_substitution</text><text font-size="1.67" x="2.004" y="27.722" class="g">Substitute</text><text font-size="1.67" x="13.026" y="27.722" class="g">into</text><text font-size="1.67" x="18.035999999999998" y="27.722" class="g">simple</text><text font-size="1.67" x="25.05" y="27.722" class="g">expressions</text><text font-size="1.67" x="37.074" y="27.722" class="g">(limited</text><text font-size="1.67" x="46.09199999999999" y="27.722" class="g">to</text><text font-size="1.67" x="49.098" y="27.722" class="g">addition,</text><text font-size="1.67" x="59.117999999999995" y="27.722" class="g">subtraction,</text><text font-size="1.67" x="2.004" y="29.893" class="g">division,</text><text font-size="1.67" x="12.024" y="29.893" class="g">multiplication).</text><text font-size="1.67" x="0" y="32.064" class="e">•</text><text font-size="1.67" x="2.004" y="32.064" class="g">solve_one_step</text><text font-size="1.67" x="2.004" y="34.235" class="g">Solve</text><text font-size="1.67" x="8.016" y="34.235" class="g">linear</text><text font-size="1.67" x="15.029999999999998" y="34.235" class="g">equations</text><text font-size="1.67" x="25.05" y="34.235" class="g">where</text><text font-size="1.67" x="31.061999999999998" y="34.235" class="g">the</text><text font-size="1.67" x="35.06999999999999" y="34.235" class="g">variable</text><text font-size="1.67" x="44.087999999999994" y="34.235" class="g">appears</text><text font-size="1.67" x="52.104" y="34.235" class="g">on</text><text font-size="1.67" x="55.10999999999999" y="34.235" class="g">one</text><text font-size="1.67" x="59.117999999999995" y="34.235" class="g">side</text><text font-size="1.67" x="64.128" y="34.235" class="g">of</text><text font-size="1.67" x="67.134" y="34.235" class="g">the</text><text font-size="1.67" x="71.142" y="34.235" class="g">equation</text><text font-size="1.67" x="2.004" y="36.406" class="g">only.</text><text font-size="1.67" x="0" y="40.748000000000005" class="e">──</text><text font-size="1.67" x="3.006" y="40.748000000000005" class="f">Data</text><text font-size="1.67" x="8.016" y="40.748000000000005" class="f">Handling</text><text font-size="1.67" x="17.034" y="40.748000000000005" class="f">&amp;</text><text font-size="1.67" x="19.037999999999997" y="40.748000000000005" class="f">Probability</text><text font-size="1.67" x="31.061999999999998" y="40.748000000000005" class="e">─────────────────────────────────────────────────</text><text font-size="1.67" x="0" y="45.09" class="g">──</text><text font-size="1.67" x="3.006" y="45.09" class="f">Averages</text><text font-size="1.67" x="12.024" y="45.09" class="f">and</text><text font-size="1.67" x="16.032" y="45.09" class="f">Range</text><text font-size="1.67" x="22.043999999999997" y="45.09" class="g">──</text><text font-size="1.67" x="0" y="47.261" class="e">•</text><text font-size="1.67" x="2.004" y="47.261" class="g">mean</text><text font-size="1.67" x="2.004" y="49.431999999999995" class="g">Calculate</text><text font-size="1.67" x="12.024" y="49.431999999999995" class="g">the</text><text font-size="1.67" x="16.032" y="49.431999999999995" class="g">mean</text><text font-size="1.67" x="21.041999999999998" y="49.431999999999995" class="g">as</text><text font-size="1.67" x="24.048" y="49.431999999999995" class="g">an</text><text font-size="1.67" x="27.054" y="49.431999999999995" class="g">average.</text><text font-size="1.67" x="0" y="53.774" class="g">──</text><text font-size="1.67" x="3.006" y="53.774" class="f">Data</text><text font-size="1.67" x="8.016" y="53.774" class="f">Representation</text><text font-size="1.67" x="23.045999999999996" y="53.774" class="g">──</text><text font-size="1.67" x="0" y="55.945" class="e">•</text><text font-size="1.67" x="2.004" y="55.945" class="g">pictograms</text><text font-size="1.67" x="2.004" y="58.11600000000001" class="g">Interpret</text><text font-size="1.67" x="12.024" y="58.11600000000001" class="g">a</text><text font-size="1.67" x="14.027999999999999" y="58.11600000000001" class="g">pictogram.</text><text font-size="1.67" x="0" y="60.287" class="e">•</text><text font-size="1.67" x="2.004" y="60.287" class="g">bar_charts</text><text font-size="1.67" x="2.004" y="62.458" class="g">Bar</text><text font-size="1.67" x="6.012" y="62.458" class="g">Charts</text><text font-size="1.67" x="0" y="64.629" class="e">•</text><text font-size="1.67" x="2.004" y="64.629" class="g">bank_statements</text><text font-size="1.67" x="2.004" y="66.8" class="g">Complete</text><text font-size="1.67" x="11.021999999999998" y="66.8" class="g">a</text><text font-size="1.67" x="13.026" y="66.8" class="g">bank</text><text font-size="1.67" x="18.035999999999998" y="66.8" class="g">statement.</text><text font-size="1.67" x="0" y="68.971" class="e">•</text><text font-size="1.67" x="2.004" y="68.971" class="g">pie_charts</text><text font-size="1.67" x="2.004" y="71.142" class="g">Pie</text><text font-size="1.67" x="6.012" y="71.142" class="g">Charts</text><text font-size="1.67" x="0" y="75.48400000000001" class="e">──</text><text font-size="1.67" x="3.006" y="75.48400000000001" class="f">Number</text><text font-size="1.67" x="10.02" y="75.48400000000001" class="e">──────────────────────────────────────────────────────────────────────</text><text font-size="1.67" x="0" y="79.82600000000001" class="g">──</text><text font-size="1.67" x="3.006" y="79.82600000000001" class="f">Arithmetic</text><text font-size="1.67" x="14.027999999999999" y="79.82600000000001" class="f">Operations</text><text font-size="1.67" x="25.05" y="79.82600000000001" class="g">──</text><text font-size="1.67" x="0" y="81.997" class="e">•</text><text font-size="1.67" x="2.004" y="81.997" class="g">addition_subtraction</text><text font-size="1.67" x="2.004" y="84.16799999999999" class="g">Add</text><text font-size="1.67" x="6.012" y="84.16799999999999" class="g">and</text><text font-size="1.67" x="10.02" y="84.16799999999999" class="g">subtract</text><text font-size="1.67" x="19.037999999999997" y="84.16799999999999" class="g">whole</text><text font-size="1.67" x="25.05" y="84.16799999999999" class="g">numbers.</text><text font-size="1.67" x="0" y="86.339" class="e">•</text><text font-size="1.67" x="2.004" y="86.339" class="g">multiplication</text><text font-size="1.67" x="2.004" y="88.51" class="g">Multiply</text><text font-size="1.67" x="11.021999999999998" y="88.51" class="g">numbers</text><text font-size="1.67" x="19.037999999999997" y="88.51" class="g">up</text><text font-size="1.67" x="22.043999999999997" y="88.51" class="g">to</text><text font-size="1.67" x="25.05" y="88.51" class="g">3</text><text font-size="1.67" x="27.054" y="88.51" class="g">digit</text><text font-size="1.67" x="33.065999999999995" y="88.51" class="g">by</text><text font-size="1.67" x="36.071999999999996" y="88.51" class="g">3</text><text font-size="1.67" x="38.07599999999999" y="88.51" class="g">digit.</text><text font-size="1.67" x="0" y="90.681" class="e">•</text><text font-size="1.67" x="2.004" y="90.681" class="g">pictoral_division</text><text font-size="1.67" x="2.004" y="92.852" class="g">Solve</text><text font-size="1.67" x="8.016" y="92.852" class="g">one</text><text font-size="1.67" x="12.024" y="92.852" class="g">step</text><text font-size="1.67" x="17.034" y="92.852" class="g">multiplication</text><text font-size="1.67" x="32.064" y="92.852" class="g">and</text><text font-size="1.67" x="36.071999999999996" y="92.852" class="g">division</text><text font-size="1.67" x="45.089999999999996" y="92.852" class="g">problems</text><text font-size="1.67" x="54.108" y="92.852" class="g">by</text><text font-size="1.67" x="57.114" y="92.852" class="g">using</text><text font-size="1.67" x="63.12599999999999" y="92.852" class="g">pictorial</text><text font-size="1.67" x="2.004" y="95.02300000000001" class="g">representations</text><text font-size="1.67" x="18.035999999999998" y="95.02300000000001" class="g">and</text><text font-size="1.67" x="22.043999999999997" y="95.02300000000001" class="g">arrays.</text><text font-size="1.67" x="0" y="97.19399999999999" class="e">•</text><text font-size="1.67" x="2.004" y="97.19399999999999" class="g">division</text><text font-size="1.67" x="2.004" y="99.365" class="g">Divide</text><text font-size="1.67" x="9.017999999999999" y="99.365" class="g">numbers.</text><text font-size="1.67" x="0" y="101.536" class="e">•</text><text font-size="1.67" x="2.004" y="101.536" class="g">number_facts</text><text font-size="1.67" x="2.004" y="103.707" class="g">Using</text><text font-size="1.67" x="8.016" y="103.707" class="g">number</text><text font-size="1.67" x="15.029999999999998" y="103.707" class="g">facts</text><text font-size="1.67" x="21.041999999999998" y="103.707" class="g">to</text><text font-size="1.67" x="24.048" y="103.707" class="g">solve</text><text font-size="1.67" x="30.059999999999995" y="103.707" class="g">connected</text><text font-size="1.67" x="40.08" y="103.707" class="g">calculations.</text><text font-size="1.67" x="0" y="105.878" class="e">•</text><text font-size="1.67" x="2.004" y="105.878" class="g">missing_digits</text><text font-size="1.67" x="2.004" y="108.049" class="g">Solve</text><text font-size="1.67" x="8.016" y="108.049" class="g">multiplication,</text><text font-size="1.67" x="24.048" y="108.049" class="g">addition</text><text font-size="1.67" x="33.065999999999995" y="108.049" class="g">and</text><text font-size="1.67" x="37.074" y="108.049" class="g">subtraction</text><text font-size="1.67" x="49.098" y="108.049" class="g">problems</text><text font-size="1.67" x="58.116" y="108.049" class="g">involving</text><text font-size="1.67" x="68.136" y="108.049" class="g">missing</text><text font-size="1.67" x="2.004" y="110.22" class="g">digits.</text><text font-size="1.67" x="0" y="112.391" class="e">•</text><text font-size="1.67" x="2.004" y="112.391" class="g">bidmas</text><text font-size="1.67" x="2.004" y="114.56200000000001" class="g">Understand</text><text font-size="1.67" x="13.026" y="114.56200000000001" class="g">the</text><text font-size="1.67" x="17.034" y="114.56200000000001" class="g">order</text><text font-size="1.67" x="23.045999999999996" y="114.56200000000001" class="g">in</text><text font-size="1.67" x="26.052" y="114.56200000000001" class="g">which</text><text font-size="1.67" x="32.064" y="114.56200000000001" class="g">operators</text><text font-size="1.67" x="42.083999999999996" y="114.56200000000001" class="g">in</text><text font-size="1.67" x="45.089999999999996" y="114.56200000000001" class="g">an</text><text font-size="1.67" x="48.096" y="114.56200000000001" class="g">expression</text><text font-size="1.67" x="59.117999999999995" y="114.56200000000001" class="g">are</text><text font-size="1.67" x="63.12599999999999" y="114.56200000000001" class="g">evaluated</text><text font-size="1.67" x="2.004" y="116.73299999999999" class="g">according</text><text font-size="1.67" x="12.024" y="116.73299999999999" class="g">to</text><text font-size="1.67" x="15.029999999999998" y="116.73299999999999" class="g">BIDMAS.</text><text font-size="1.67" x="0" y="118.904" class="e">•</text><text font-size="1.67" x="2.004" y="118.904" class="g">estimate_calculations</text><text font-size="1.67" x="2.004" y="121.075" class="g">Estimate</text><text font-size="1.67" x="11.021999999999998" y="121.075" class="g">the</text><text font-size="1.67" x="15.029999999999998" y="121.075" class="g">result</text><text font-size="1.67" x="22.043999999999997" y="121.075" class="g">of</text><text font-size="1.67" x="25.05" y="121.075" class="g">a</text><text font-size="1.67" x="27.054" y="121.075" class="g">calculation</text><text font-size="1.67" x="39.077999999999996" y="121.075" class="g">by</text><text font-size="1.67" x="42.083999999999996" y="121.075" class="g">first</text><text font-size="1.67" x="48.096" y="121.075" class="g">rounding</text><text font-size="1.67" x="57.114" y="121.075" class="g">each</text><text font-size="1.67" x="62.123999999999995" y="121.075" class="g">number.</text><text font-size="1.67" x="0" y="125.417" class="g">──</text><text font-size="1.67" x="3.006" y="125.417" class="f">Decimals</text><text font-size="1.67" x="12.024" y="125.417" class="g">──</text><text font-size="1.67" x="0" y="127.58800000000001" class="e">•</text><text font-size="1.67" x="2.004" y="127.58800000000001" class="g">place_value</text><text font-size="1.67" x="2.004" y="129.759" class="g">Place</text><text font-size="1.67" x="8.016" y="129.759" class="g">value</text><text font-size="1.67" x="14.027999999999999" y="129.759" class="g">and</text><text font-size="1.67" x="18.035999999999998" y="129.759" class="g">ordering</text><text font-size="1.67" x="27.054" y="129.759" class="g">of</text><text font-size="1.67" x="30.059999999999995" y="129.759" class="g">decimals.</text><text font-size="1.67" x="0" y="131.92999999999998" class="e">•</text><text font-size="1.67" x="2.004" y="131.92999999999998" class="g">decimal_addition_subtraction</text><text font-size="1.67" x="2.004" y="134.10099999999997" class="g">Add</text><text font-size="1.67" x="6.012" y="134.10099999999997" class="g">or</text><text font-size="1.67" x="9.017999999999999" y="134.10099999999997" class="g">subtract</text><text font-size="1.67" x="18.035999999999998" y="134.10099999999997" class="g">decimal</text><text font-size="1.67" x="26.052" y="134.10099999999997" class="g">numbers.</text><text font-size="1.67" x="0" y="138.44299999999998" class="g">──</text><text font-size="1.67" x="3.006" y="138.44299999999998" class="f">Fraction,</text><text font-size="1.67" x="13.026" y="138.44299999999998" class="f">Decimal</text><text font-size="1.67" x="21.041999999999998" y="138.44299999999998" class="f">&amp;</text><text font-size="1.67" x="23.045999999999996" y="138.44299999999998" class="f">Percentage</text><text font-size="1.67" x="34.068" y="138.44299999999998" class="f">Correspondences</text><text font-size="1.67" x="50.1" y="138.44299999999998" class="g">──</text><text font-size="1.67" x="0" y="140.61399999999998" class="e">•</text><text font-size="1.67" x="2.004" y="140.61399999999998" class="g">conversion</text><text font-size="1.67" x="2.004" y="142.785" class="g">Convert</text><text font-size="1.67" x="10.02" y="142.785" class="g">between</text><text font-size="1.67" x="18.035999999999998" y="142.785" class="g">non-recurring</text><text font-size="1.67" x="32.064" y="142.785" class="g">decimals,</text><text font-size="1.67" x="42.083999999999996" y="142.785" class="g">fractions</text><text font-size="1.67" x="52.104" y="142.785" class="g">and</text><text font-size="1.67" x="56.111999999999995" y="142.785" class="g">percentages.</text><text font-size="1.67" x="0" y="147.12699999999998" class="g">──</text><text font-size="1.67" x="3.006" y="147.12699999999998" class="f">Fractions</text><text font-size="1.67" x="13.026" y="147.12699999999998" class="g">──</text><text font-size="1.67" x="0" y="149.298" class="e">•</text><text font-size="1.67" x="2.004" y="149.298" class="g">shape_fractions</text><text font-size="1.67" x="2.004" y="151.46899999999997" class="g">Find</text><text font-size="1.67" x="7.013999999999999" y="151.46899999999997" class="g">what</text><text font-size="1.67" x="12.024" y="151.46899999999997" class="g">fraction</text><text font-size="1.67" x="21.041999999999998" y="151.46899999999997" class="g">of</text><text font-size="1.67" x="24.048" y="151.46899999999997" class="g">a</text><text font-size="1.67" x="26.052" y="151.46899999999997" class="g">shape</text><text font-size="1.67" x="32.064" y="151.46899999999997" class="g">is</text><text font-size="1.67" x="35.06999999999999" y="151.46899999999997" class="g">shaded.</text><text font-size="1.67" x="0" y="153.64" class="e">•</text><text font-size="1.67" x="2.004" y="153.64" class="g">equivalent_fractions</text><text font-size="1.67" x="2.004" y="155.81099999999998" class="g">Understand</text><text font-size="1.67" x="13.026" y="155.81099999999998" class="g">equivalent</text><text font-size="1.67" x="24.048" y="155.81099999999998" class="g">fractions.</text><text font-size="1.67" x="0" y="157.982" class="e">•</text><text font-size="1.67" x="2.004" y="157.982" class="g">fraction_integer_division</text><text font-size="1.67" x="2.004" y="160.153" class="g">Divide</text><text font-size="1.67" x="9.017999999999999" y="160.153" class="g">fractions</text><text font-size="1.67" x="19.037999999999997" y="160.153" class="g">by</text><text font-size="1.67" x="22.043999999999997" y="160.153" class="g">integers.</text><text font-size="1.67" x="0" y="162.32399999999998" class="e">•</text><text font-size="1.67" x="2.004" y="162.32399999999998" class="g">order_fractions</text><text font-size="1.67" x="2.004" y="164.495" class="g">Order</text><text font-size="1.67" x="8.016" y="164.495" class="g">fractions,</text><text font-size="1.67" x="19.037999999999997" y="164.495" class="g">possibly</text><text font-size="1.67" x="28.055999999999997" y="164.495" class="g">with</text><text font-size="1.67" x="33.065999999999995" y="164.495" class="g">decimals.</text><text font-size="1.67" x="0" y="168.837" class="e">──</text><text font-size="1.67" x="3.006" y="168.837" class="f">Times</text><text font-size="1.67" x="9.017999999999999" y="168.837" class="f">tables</text><text font-size="1.67" x="16.032" y="168.837" class="e">────────────────────────────────────────────────────────────────</text><text font-size="1.67" x="0" y="173.179" class="e">•</text><text font-size="1.67" x="2.004" y="173.179" class="g">fixed_time</text><text font-size="1.67" x="2.004" y="175.35" class="g">You</text><text font-size="1.67" x="6.012" y="175.35" class="g">have</text><text font-size="1.67" x="11.021999999999998" y="175.35" class="g">30</text><text font-size="1.67" x="14.027999999999999" y="175.35" class="g">seconds</text><text font-size="1.67" x="22.043999999999997" y="175.35" class="g">to</text><text font-size="1.67" x="25.05" y="175.35" class="g">answer</text><text font-size="1.67" x="32.064" y="175.35" class="g">as</text><text font-size="1.67" x="35.06999999999999" y="175.35" class="g">many</text><text font-size="1.67" x="40.08" y="175.35" class="g">questions</text><text font-size="1.67" x="50.1" y="175.35" class="g">as</text><text font-size="1.67" x="53.105999999999995" y="175.35" class="g">you</text><text font-size="1.67" x="57.114" y="175.35" class="g">can</text><text font-size="1.67" x="61.12199999999999" y="175.35" class="g">on</text><text font-size="1.67" x="64.128" y="175.35" class="g">all</text><text font-size="1.67" x="2.004" y="177.52099999999996" class="g">times/divide</text><text font-size="1.67" x="15.029999999999998" y="177.52099999999996" class="g">tables.</text><text font-size="1.67" x="23.045999999999996" y="177.52099999999996" class="g">Can</text><text font-size="1.67" x="27.054" y="177.52099999999996" class="g">you</text><text font-size="1.67" x="31.061999999999998" y="177.52099999999996" class="g">get</text><text font-size="1.67" x="35.06999999999999" y="177.52099999999996" class="g">on</text><text font-size="1.67" x="38.07599999999999" y="177.52099999999996" class="g">the</text><text font-size="1.67" x="42.083999999999996" y="177.52099999999996" class="g">leaderboard?</text><text font-size="1.67" x="0" y="179.69199999999998" class="e">•</text><text font-size="1.67" x="2.004" y="179.69199999999998" class="g">individual_practice</text><text font-size="1.67" x="2.004" y="181.86299999999997" class="g">Practise</text><text font-size="1.67" x="11.021999999999998" y="181.86299999999997" class="g">each</text><text font-size="1.67" x="16.032" y="181.86299999999997" class="g">times</text><text font-size="1.67" x="22.043999999999997" y="181.86299999999997" class="g">table/divide</text><text font-size="1.67" x="35.06999999999999" y="181.86299999999997" class="g">table</text><text font-size="1.67" x="41.082" y="181.86299999999997" class="g">separately,</text><text font-size="1.67" x="53.105999999999995" y="181.86299999999997" class="g">with</text><text font-size="1.67" x="58.116" y="181.86299999999997" class="g">points</text><text font-size="1.67" x="65.13" y="181.86299999999997" class="g">for</text><text font-size="1.67" x="69.13799999999999" y="181.86299999999997" class="g">accuracy</text><text font-size="1.67" x="2.004" y="184.034" class="g">and</text><text font-size="1.67" x="6.012" y="184.034" class="g">speed.</text></svg></svg></g></svg></svg>